{"title":"My Friend Irma - 1949 - Jerry Lewis and Dean Martin - Debut Film","uid":8297681,"size":1451155849,"categoryP":"video","categoryS":"movies","magnet":"?xt=urn:btih:975d18b4e061e0ef1697b8eeedefcc2c1d064afd&amp;dn=My+Friend+Irma+-+1949+-+Jerry+Lewis+and+Dean+Martin+-+Debut+Film&amp;tr=udp%3A%2F%2Ftracker.openbittorrent.com%3A80&amp;tr=udp%3A%2F%2Fopen.demonii.com%3A1337&amp;tr=udp%3A%2F%2Ftracker.coppersurfer.tk%3A6969&amp;tr=udp%3A%2F%2Fexodus.desync.com%3A6969","seeders":2,"leechers":1,"uploader":"MrBruce1959","files":-1,"time":1364185010,"description":"My Friend Irma is a comedy film directed by George Marshall and is most notable as \n\nthe film debut of comedy team Dean Martin and Jerry Lewis. The film was released \n\non August 16, 1949 by Paramount and is based upon the CBS radio series My Friend \n\nIrma that first aired in 1947.\n\n\nThis motion picture is in black and white.\n\n &lt;a href=&quot;\nhttp://en.wikipedia.org/wiki/My_Friend_Irma_(film)&quot; rel=&quot;nofollow&quot; target=&quot;_NEW&quot;&gt;\nhttp://en.wikipedia.org/wiki/My_Friend_Irma_(film)&lt;/a&gt;\n\n\nThis is the Audio Video Interleave copy of this film it is smaller than another copy that I uploaded which is a 3.41 GiB Copy entitled -- My Friend Irma - 1949 - Martin And Lewis Debut Film.\n\nIf you prefer the MPEG-PS copy search for it under my user name.\n\nThis Video does have some ghosting in the form of vertical lines occasionally scrolling on the screen.\n\nThis video was recorded from Cinemax Pat-TV on VHS video tape in 1986 and was transfered to DVD using a Magnavox ZV457MG9 VHS to DVD recorder.\n\nNero 9's Nero Vision was used to trans-code to .MPG and then to .AVI  \n\n\n\n\nFormat                                   : AVI\nFormat/Info                              : Audio Video Interleave\nFormat profile                           : OpenDML\nFile size                                : 1.35 GiB\nDuration                                 : 1h 42mn\nOverall bit rate                         : 1 881 Kbps\n\nVideo\nID                                       : 0\nFormat                                   : MPEG-4 Visual\nFormat profile                           : Advanced Simple@L5\nFormat settings, BVOP                    : 2\nFormat settings, QPel                    : No\nFormat settings, GMC                     : No warppoints\nFormat settings, Matrix                  : Default (H.263)\nMuxing mode                              : Packed bitstream\nCodec ID                                 : XVID\nCodec ID/Hint                            : XviD\nDuration                                 : 1h 42mn\nBit rate                                 : 466 Kbps\nWidth                                    : 320 pixels\nHeight                                   : 240 pixels\nDisplay aspect ratio                     : 4:3\nFrame rate                               : 29.970 fps\nOriginal frame rate                      : 25.000 fps\nColor space                              : YUV\nChroma subsampling                       : 4:2:0\nBit depth                                : 8 bits\nScan type                                : Progressive\nCompression mode                         : Lossy\nBits/(Pixel*Frame)                       : 0.202\nStream size                              : 343 MiB (25%)\nWriting library                          : XviD 63\n\nAudio\nID                                       : 1\nFormat                                   : PCM\nFormat settings, Endianness              : Little\nFormat settings, Sign                    : Signed\nCodec ID                                 : 1\nDuration                                 : 1h 42mn\nBit rate mode                            : Constant\nBit rate                                 : 1 411.2 Kbps\nChannel(s)                               : 2 channels\nSampling rate                            : 44.1 KHz\nBit depth                                : 16 bits\nStream size                              : 1.01 GiB (75%)\nAlignment                                : Aligned on interleaves\nInterleave, duration                     : 968 ms (29.00 video frames)\n\nEnjoy!","torrent":{"xt":"urn:btih:975d18b4e061e0ef1697b8eeedefcc2c1d064afd","amp;dn":"My+Friend+Irma+-+1949+-+Jerry+Lewis+and+Dean+Martin+-+Debut+Film","amp;tr":["udp%3A%2F%2Ftracker.openbittorrent.com%3A80","udp%3A%2F%2Fopen.demonii.com%3A1337","udp%3A%2F%2Ftracker.coppersurfer.tk%3A6969","udp%3A%2F%2Fexodus.desync.com%3A6969"],"infoHash":"975d18b4e061e0ef1697b8eeedefcc2c1d064afd","infoHashBuffer":{"type":"Buffer","data":[151,93,24,180,224,97,224,239,22,151,184,238,237,239,204,44,29,6,74,253]},"announce":[],"urlList":[]}}